<svg width="404.5824951171875px" height="124.42252197265624px" xmlns="http://www.w3.org/2000/svg" viewBox="47.70875244140626 12.78873901367188 404.5824951171875 124.42252197265624" style="background: rgba(0, 0, 0, 0);" preserveAspectRatio="xMidYMid"><defs><filter id="editing-extrude-glow"><feFlood flood-color="rgba(0%,0%,0%,0)" result="flood-1"></feFlood><feMorphology operator="erode" radius="1" in="SourceAlpha" result="erode"></feMorphology><feComposite operator="in" in="flood-1" in2="erode" result="comp1"></feComposite><feConvolveMatrix order="3,3" divisor="1" in="comp1" result="convolve" kernelMatrix="0 0 0 1 1 1 0 0 0"></feConvolveMatrix><feOffset dx="-3" dy="0" in="convolve" result="extrude"></feOffset><feComposite operator="in" in="flood-1" in2="extrude" result="comp-extrude"></feComposite><feFlood flood-color="rgba(0%,0%,0%,0)" result="flood-2"></feFlood><feComposite operator="in" in="flood-2" in2="SourceAlpha" result="comp2"></feComposite><feMorphology operator="dilate" radius="1" in="comp2" result="dilate"></feMorphology><feOffset dx="-4.5" dy="0" in="dilate" result="offset"></feOffset><feGaussianBlur in="offset" stdDeviation="5.8" result="blur"></feGaussianBlur><feComponentTransfer in="blur" result="shadow"><feFuncA type="linear" slope="0.8" intercept="-0.2"></feFuncA></feComponentTransfer><feMerge><feMergeNode in="shadow"></feMergeNode><feMergeNode in="comp-extrude"></feMergeNode><feMergeNode in="SourceGraphic"></feMergeNode></feMerge></filter></defs><g filter="url(#editing-extrude-glow)"><g transform="translate(106.98000049591064, 97.40500068664551)"><path d="M48.19-6.41L48.19 0L5.38 0L5.38-44.81L11.78-44.81L11.78-6.41L48.19-6.41ZM100.56-6.41L100.56 0L54.22 0L54.22-44.81L100.56-44.81L100.56-38.41L60.63-38.41L60.63-6.41L100.56-6.41ZM95.13-25.59L95.13-19.19L63.81-19.19L63.81-25.59L95.13-25.59ZM159.44-44.81L159.44 0L153.03 0L153.03-12.81L117.28-12.81L117.28-19.19L153.03-19.19L153.03-38.41L130.06-38.41L130.06-38.41Q126.78-38.41 123.88-37.14L123.88-37.14L123.88-37.14Q120.97-35.88 118.81-33.70L118.81-33.70L118.81-33.70Q116.66-31.53 115.39-28.63L115.39-28.63L115.39-28.63Q114.13-25.72 114.13-22.41L114.13-22.41L114.13 0L107.72 0L107.72-22.41L107.72-22.41Q107.72-25.50 108.52-28.36L108.52-28.36L108.52-28.36Q109.31-31.22 110.77-33.70L110.77-33.70L110.77-33.70Q112.22-36.19 114.27-38.23L114.27-38.23L114.27-38.23Q116.31-40.28 118.80-41.75L118.80-41.75L118.80-41.75Q121.28-43.22 124.13-44.02L124.13-44.02L124.13-44.02Q126.97-44.81 130.06-44.81L130.06-44.81L159.44-44.81ZM223-22.41L223-22.41L223-22.41Q223-17.75 221.52-13.66L221.52-13.66L221.52-13.66Q220.03-9.56 217.31-6.53L217.31-6.53L217.31-6.53Q214.59-3.50 210.80-1.75L210.80-1.75L210.80-1.75Q207 0 202.38 0L202.38 0L179.78 0L179.78-6.41L202.38-6.41L202.38-6.41Q205.69-6.41 208.33-7.66L208.33-7.66L208.33-7.66Q210.97-8.91 212.80-11.08L212.80-11.08L212.80-11.08Q214.63-13.25 215.61-16.17L215.61-16.17L215.61-16.17Q216.59-19.09 216.59-22.41L216.59-22.41L216.59-22.41Q216.59-25.72 215.61-28.63L215.61-28.63L215.61-28.63Q214.63-31.53 212.80-33.70L212.80-33.70L212.80-33.70Q210.97-35.88 208.33-37.14L208.33-37.14L208.33-37.14Q205.69-38.41 202.38-38.41L202.38-38.41L176.59-38.41L176.59 0L170.19 0L170.19-44.81L202.38-44.81L202.38-44.81Q207-44.81 210.80-43.05L210.80-43.05L210.80-43.05Q214.59-41.28 217.31-38.23L217.31-38.23L217.31-38.23Q220.03-35.19 221.52-31.11L221.52-31.11L221.52-31.11Q223-27.03 223-22.41ZM280.66-12.81L280.66-12.81L280.66-12.81Q280.66-10.13 279.66-7.80L279.66-7.80L279.66-7.80Q278.66-5.47 276.92-3.73L276.92-3.73L276.92-3.73Q275.19-2 272.86-1L272.86-1L272.86-1Q270.53 0 267.88 0L267.88 0L228.94 0L228.94-6.41L267.88-6.41L267.88-6.41Q269.22-6.41 270.38-6.91L270.38-6.91L270.38-6.91Q271.53-7.41 272.39-8.28L272.39-8.28L272.39-8.28Q273.25-9.16 273.75-10.33L273.75-10.33L273.75-10.33Q274.25-11.50 274.25-12.81L274.25-12.81L274.25-12.81Q274.25-14.13 273.75-15.28L273.75-15.28L273.75-15.28Q273.25-16.44 272.39-17.31L272.39-17.31L272.39-17.31Q271.53-18.19 270.38-18.69L270.38-18.69L270.38-18.69Q269.22-19.19 267.88-19.19L267.88-19.19L241.75-19.19L241.75-19.19Q239.13-19.19 236.78-20.19L236.78-20.19L236.78-20.19Q234.44-21.19 232.70-22.92L232.70-22.92L232.70-22.92Q230.97-24.66 229.95-27L229.95-27L229.95-27Q228.94-29.34 228.94-32L228.94-32L228.94-32Q228.94-34.63 229.95-36.97L229.95-36.97L229.95-36.97Q230.97-39.31 232.70-41.05L232.70-41.05L232.70-41.05Q234.44-42.78 236.78-43.80L236.78-43.80L236.78-43.80Q239.13-44.81 241.75-44.81L241.75-44.81L277.47-44.81L277.47-38.41L241.75-38.41L241.75-38.41Q240.44-38.41 239.27-37.91L239.27-37.91L239.27-37.91Q238.09-37.41 237.22-36.53L237.22-36.53L237.22-36.53Q236.34-35.66 235.84-34.48L235.84-34.48L235.84-34.48Q235.34-33.31 235.34-32L235.34-32L235.34-32Q235.34-30.69 235.84-29.52L235.84-29.52L235.84-29.52Q236.34-28.34 237.22-27.47L237.22-27.47L237.22-27.47Q238.09-26.59 239.27-26.09L239.27-26.09L239.27-26.09Q240.44-25.59 241.75-25.59L241.75-25.59L267.88-25.59L267.88-25.59Q270.53-25.59 272.86-24.58L272.86-24.58L272.86-24.58Q275.19-23.56 276.92-21.83L276.92-21.83L276.92-21.83Q278.66-20.09 279.66-17.77L279.66-17.77L279.66-17.77Q280.66-15.44 280.66-12.81Z" fill="#ffffff"></path></g></g><style>text {
  font-size: 64px;
  font-family: Arial Black;
  dominant-baseline: central;
  text-anchor: middle;
}</style></svg>